<svg width="400" height="250" viewBox="0 0 400 250" fill="none" xmlns="http://www.w3.org/2000/svg">
  <rect width="400" height="250" fill="#DC2626"/>
  <rect x="20" y="20" width="360" height="210" fill="#1F2937" rx="8"/>
  <rect x="40" y="40" width="320" height="30" fill="#EF4444" rx="4"/>
  <text x="200" y="60" text-anchor="middle" fill="#FFFFFF" font-family="Arial" font-size="14" font-weight="bold">⚠️ Phishing Email Detected</text>
  <rect x="40" y="90" width="320" height="100" fill="#374151" rx="4"/>
  <rect x="50" y="100" width="300" height="15" fill="#F87171" rx="2"/>
  <rect x="50" y="125" width="250" height="12" fill="#9CA3AF" rx="2"/>
  <rect x="50" y="145" width="200" height="12" fill="#9CA3AF" rx="2"/>
  <rect x="50" y="165" width="180" height="12" fill="#9CA3AF" rx="2"/>
  <rect x="40" y="210" width="100" height="20" fill="#10B981" rx="4"/>
  <rect x="160" y="210" width="100" height="20" fill="#F59E0B" rx="4"/>
  <rect x="280" y="210" width="80" height="20" fill="#EF4444" rx="4"/>
  <text x="90" y="225" text-anchor="middle" fill="#FFFFFF" font-family="Arial" font-size="10">Safe</text>
  <text x="210" y="225" text-anchor="middle" fill="#FFFFFF" font-family="Arial" font-size="10">Suspicious</text>
  <text x="320" y="225" text-anchor="middle" fill="#FFFFFF" font-family="Arial" font-size="10">Phishing</text>
</svg>
